<?xml version="1.0" encoding="UTF-8"?>
<svg id="Layer_1" xmlns="http://www.w3.org/2000/svg" version="1.1" viewBox="0 0 425.2 425.2">
  <!-- Generator: Adobe Illustrator 29.0.1, SVG Export Plug-In . SVG Version: 2.1.0 Build 192)  -->
  <defs>
    <style>
      .st0 {
        fill: #fff;
      }

      .st1 {
        fill: #bbbdbf;
      }

      .st2 {
        fill: #e6e7e8;
      }
    </style>
  </defs>
  <g>
    <path class="st0" d="M156.29,306.17c-1.41,0-2.19-.59-2.19-1.84h.73c0,.76.48,1.2,1.49,1.21.95,0,1.42-.31,1.42-.92,0-1.49-3.6-.59-3.59-2.69,0-.93.66-1.54,2.1-1.53,1.61,0,2.1.66,2.1,1.69h-.73c0-.5-.17-1.05-1.37-1.06-1.04,0-1.35.42-1.35.88,0,1.47,3.59.59,3.59,2.69,0,1.04-.77,1.57-2.2,1.56Z"/>
    <path class="st0" d="M159.5,300.55h.75v2.31h2.85v-2.31h.75v5.48h-.75v-2.51h-2.85v2.51h-.75v-5.48Z"/>
    <path class="st0" d="M166.8,300.55h.81l2.22,5.48h-.82l-.49-1.3h-2.64l-.48,1.3h-.81l2.22-5.48ZM168.27,304.09l-1.08-2.88-1.08,2.88h2.15Z"/>
    <path class="st0" d="M170.56,300.53h1.87c1.77,0,2.49.39,2.49,1.8s-.71,1.81-2.49,1.81h-1.12v1.89h-.75v-5.51ZM171.31,303.51h1.23c.98,0,1.61-.13,1.61-1.18s-.63-1.19-1.61-1.19h-1.23v2.37Z"/>
    <path class="st0" d="M175.84,300.55h.75v5.48h-.75v-5.48Z"/>
    <path class="st0" d="M178.59,306.04h-.71l.03-5.48h.81l3.08,4.54-.05-4.54h.72v5.48h-.81l-3.1-4.58.02,4.58Z"/>
    <path class="st0" d="M185.9,306.17c-1.75,0-2.38-.96-2.38-2.87s.64-2.89,2.38-2.89c1.48,0,2.15.76,2.15,1.89h-.72c-.02-.73-.52-1.24-1.44-1.24-1.16,0-1.62.7-1.62,2.24s.47,2.24,1.64,2.24c.92,0,1.44-.39,1.44-.52v-1.08h-1.18v-.62h1.88v2.05c0,.08-.63.79-2.15.79Z"/>
    <path class="st0" d="M192.13,301.21h-1.83v-.66h4.42v.66h-1.84l-.02,4.83h-.75l.02-4.83Z"/>
    <path class="st0" d="M195.44,300.55h.75v2.31h2.85v-2.31h.75v5.48h-.75v-2.51h-2.85v2.51h-.75v-5.48Z"/>
    <path class="st0" d="M201.09,300.55h3.74v.65h-2.99v1.68h2.58v.62h-2.58v1.88h3.03v.65h-3.78v-5.48Z"/>
    <path class="st0" d="M207.44,300.55h3.69v.65h-2.94v1.81h2.53v.63h-2.53v2.39h-.75v-5.48Z"/>
    <path class="st0" d="M213.99,306.17c-1.9,0-2.22-1.03-2.22-2.81v-2.82h.74v2.77c0,1.5.29,2.18,1.48,2.18s1.47-.68,1.47-2.18v-2.77h.76v2.82c0,1.78-.32,2.81-2.23,2.81Z"/>
    <path class="st0" d="M218.66,301.21h-1.83v-.66h4.42v.66h-1.84l-.02,4.83h-.75l.02-4.83Z"/>
    <path class="st0" d="M224.1,306.17c-1.9,0-2.22-1.03-2.22-2.81v-2.82h.74v2.77c0,1.5.29,2.18,1.48,2.18s1.47-.68,1.47-2.18v-2.77h.76v2.82c0,1.78-.32,2.81-2.23,2.81Z"/>
    <path class="st0" d="M227.53,300.53h2.06c1.61,0,2.31.34,2.31,1.73,0,.99-.36,1.44-1.16,1.62l1.23,2.16h-.81l-1.13-2.07c-.15,0-.3,0-.46,0h-1.3v2.07h-.75v-5.51ZM228.28,303.34h1.25c.99,0,1.61-.1,1.61-1.08s-.62-1.09-1.61-1.09h-1.25v2.17Z"/>
    <path class="st0" d="M232.95,300.55h3.74v.65h-2.99v1.68h2.58v.62h-2.58v1.88h3.03v.65h-3.78v-5.48Z"/>
    <path class="st0" d="M239.31,300.55h.75v5.48h-.75v-5.48Z"/>
    <path class="st0" d="M242.06,306.04h-.71l.03-5.48h.81l3.08,4.54-.05-4.54h.72v5.48h-.81l-3.1-4.58.02,4.58Z"/>
    <path class="st0" d="M250.87,306.17c-1.41,0-2.19-.59-2.19-1.84h.73c0,.76.48,1.2,1.49,1.21.95,0,1.42-.31,1.42-.92,0-1.49-3.6-.59-3.59-2.69,0-.93.66-1.54,2.1-1.53,1.61,0,2.1.66,2.1,1.69h-.73c0-.5-.17-1.05-1.37-1.06-1.04,0-1.35.42-1.35.88,0,1.47,3.59.59,3.59,2.69,0,1.04-.77,1.57-2.2,1.56Z"/>
    <path class="st0" d="M255.17,301.21h-1.83v-.66h4.42v.66h-1.84l-.02,4.83h-.75l.02-4.83Z"/>
    <path class="st0" d="M258.47,300.55h3.74v.65h-2.99v1.68h2.58v.62h-2.58v1.88h3.03v.65h-3.78v-5.48Z"/>
    <path class="st0" d="M263.12,300.55h3.74v.65h-2.99v1.68h2.58v.62h-2.58v1.88h3.03v.65h-3.78v-5.48Z"/>
    <path class="st0" d="M267.76,300.55h.75v4.82h2.59v.66h-3.34v-5.48Z"/>
  </g>
  <g>
    <path class="st0" d="M169.15,271.56v3.49h-17.24c-1.56,0-2.15.83-2.15,2.15v1.29c0,1.41.65,2.15,2.15,2.15h12.68c3.58,0,5.4,1.81,5.4,5.03v2.51c0,2.88-1.66,4.84-5.46,4.84h-15.27c-1.93,0-3.49-1.56-3.49-3.49h0s18.02,0,18.02,0c1.56,0,2.15-.83,2.15-2.15v-1.53c0-1.41-.65-2.15-2.11-2.15h-12.68c-3.58,0-5.4-1.81-5.4-5.03v-2.24c0-2.91,1.66-4.87,5.43-4.87h17.98Z"/>
    <path class="st0" d="M199.1,271.56v3.56h-11.28v17.9h-4.07v-17.9h-11.25v-3.56h26.6Z"/>
    <path class="st0" d="M252.67,271.56v3.49h-14.83c-3.87,0-5.11,1.17-5.11,4.87v.71h19.94v3.07h-19.94v.95c0,3.71,1.24,4.87,5.11,4.87h14.83v3.49h-14.86c-6.54,0-9.01-2.21-9.01-8.09v-5.27c0-5.89,2.47-8.09,9.01-8.09h14.86Z"/>
    <path class="st0" d="M260.57,271.56v13c0,3.71,1.24,4.91,5.11,4.91h13.79c0,1.96-1.59,3.56-3.56,3.56h-10.36c-6.54,0-9.01-2.21-9.01-8.09v-13.37h4.03Z"/>
    <path class="st0" d="M225.12,271.56v3.49h-14.83c-3.87,0-5.11,1.17-5.11,4.87v.71h19.94v3.07h-19.94v.95c0,3.71,1.24,4.87,5.11,4.87h14.83v3.49h-14.86c-6.54,0-9.01-2.21-9.01-8.09v-5.27c0-5.89,2.47-8.09,9.01-8.09h14.86Z"/>
  </g>
  <g>
    <path class="st0" d="M164.49,262.66l-10.12-23.9-10.12,23.9h-15.22l11.64-27.08c2.36-5.48,7.74-9.03,13.71-9.03s11.35,3.54,13.71,9.03l11.64,27.08h-15.22Z"/>
    <path class="st0" d="M280.96,262.66l-10.12-23.9-10.12,23.9h-15.22l11.64-27.08c2.36-5.48,7.74-9.03,13.71-9.03s11.35,3.54,13.71,9.03l11.64,27.08h-15.22Z"/>
    <path class="st0" d="M197.12,262.66c-10.47,0-18.98-8.51-18.98-18.98v-17.92h13.25v18.67c0,3.67,2.98,6.65,6.65,6.65s6.65-2.98,6.65-6.65v-18.67h13.25v17.92c0,10.47-8.51,18.98-18.98,18.98h-1.85Z"/>
    <path class="st0" d="M222.59,262.66v-22.14c0-8.14,6.62-14.76,14.76-14.76h18.59l-5.95,13.25h-14.15v23.64h-13.25Z"/>
  </g>
  <g>
    <path class="st0" d="M260.5,196.87v-39.47c0-4.7-1.85-9.2-5.16-12.54l-22.01-22.23c-3.74-3.78-9.52-4.68-14.23-2.21l-20.51,10.72,28.5,28.79c2.05,2.07,3.2,4.87,3.2,7.78v44.96l30.2-15.79Z"/>
    <path class="st0" d="M166.11,197.81v-38.25c0-7.04,3.91-13.49,10.15-16.76l22.33-11.68v49.7l-32.48,16.98Z"/>
    <polygon class="st1" points="168.8 200.91 184.17 205.3 216.65 188.32 201.28 183.93 168.8 200.91"/>
    <polygon class="st2" points="198.59 180.83 201.28 183.93 168.8 200.91 166.11 197.81 198.59 180.83"/>
  </g>
</svg>